<svg width="78" height="17" viewBox="0 0 78 17" fill="none" xmlns="http://www.w3.org/2000/svg">
<g opacity="0.6">
<path d="M16.1797 14.866L18.1276 13.3326C18.6808 14.2824 19.5549 14.8354 20.5558 14.8354C21.6443 14.8354 22.2281 14.1294 22.2281 13.3632C22.2281 12.443 21.1079 12.1517 19.9107 11.7803C18.4073 11.3201 16.735 10.7376 16.735 8.59C16.735 6.79594 18.2996 5.36914 20.4629 5.36914C22.2893 5.36914 23.3324 6.05932 24.2382 6.9954L22.4699 8.33778C22.0096 7.64759 21.3497 7.28245 20.4755 7.28245C19.4779 7.28245 18.9415 7.81961 18.9415 8.52457C18.9415 9.38361 20.0152 9.67488 21.2125 10.0738C22.7306 10.5645 24.4494 11.2347 24.4494 13.3865C24.4494 15.1657 23.0379 16.8838 20.5674 16.8838C18.5425 16.8754 17.1922 16.0163 16.1797 14.866ZM33.342 9.05329H35.4292V9.91232C35.6801 9.59189 36.0017 9.3338 36.3689 9.15823C36.7361 8.98266 37.139 8.89437 37.546 8.90027C39.3566 8.90027 40.4462 10.0611 40.4462 12.0441V16.7213H38.3135V12.3195C38.3135 11.2927 37.8374 10.6943 36.902 10.6943C36.1039 10.6943 35.444 11.2463 35.444 12.5348V16.7213H33.342V9.05329ZM40.9434 12.8873C40.9434 10.173 42.9377 8.90027 44.6713 8.90027C45.669 8.90027 46.4513 9.26752 46.958 9.80468V5.52533H49.0601V16.7213H46.9538V15.8633C46.4471 16.4606 45.6341 16.8754 44.6365 16.8754C43.0106 16.8754 40.9392 15.5868 40.9392 12.8873H40.9434ZM47.0193 12.8725C47.0193 11.737 46.1905 10.8167 45.0556 10.8167C44.5082 10.8167 43.9832 11.0341 43.5961 11.421C43.209 11.8079 42.9916 12.3327 42.9916 12.8799C42.9916 13.4271 43.209 13.9519 43.5961 14.3388C43.9832 14.7257 44.5082 14.9431 45.0556 14.9431C46.1863 14.9431 47.0151 14.007 47.0151 12.8757L47.0193 12.8725ZM49.5531 11.1238C49.5531 7.93359 51.9613 5.37231 55.2763 5.37231C56.9339 5.37231 58.3275 5.96857 59.3368 6.91942C59.7458 7.30509 60.094 7.75058 60.3693 8.24069L58.4932 9.37516C57.8027 8.10244 56.7449 7.44286 55.2869 7.44286C53.2461 7.44286 51.6657 9.1145 51.6657 11.1238C51.6657 13.1786 53.2155 14.8048 55.3608 14.8048C56.9866 14.8048 58.1374 13.8846 58.5365 12.4578H55.0261V10.4178H60.8412V11.2769C60.8412 14.2835 58.6927 16.8754 55.364 16.8754C51.8652 16.8754 49.5489 14.2223 49.5489 11.1238H49.5531ZM61.3775 9.05329H63.4647V10.3112C63.848 9.51341 64.5384 9.05329 65.5826 9.05329H66.4272L65.6649 11.0932H65.0917C63.9726 11.0932 63.4816 11.6758 63.4816 13.0984V16.7171H61.3744L61.3775 9.05329ZM66.973 9.05329H69.075V16.7213H66.973V11.0932H66.2097L66.973 9.05329ZM68.0288 7.8861C68.2775 7.8861 68.5206 7.81238 68.7273 7.67427C68.9341 7.53616 69.0953 7.33986 69.1905 7.11019C69.2856 6.88053 69.3105 6.62781 69.262 6.38399C69.2135 6.14018 69.0937 5.91622 68.9179 5.74044C68.742 5.56466 68.518 5.44496 68.2741 5.39646C68.0302 5.34796 67.7773 5.37285 67.5476 5.46798C67.3178 5.56311 67.1214 5.72421 66.9833 5.93091C66.8451 6.1376 66.7714 6.38061 66.7714 6.6292C66.7714 6.96182 66.9033 7.28088 67.1382 7.51647C67.3731 7.75206 67.6918 7.88498 68.0245 7.8861H68.0288ZM69.5723 12.8873C69.5723 10.173 71.5676 8.90027 73.3012 8.90027C74.2989 8.90027 75.0812 9.26752 75.5869 9.80468V5.52533H77.6889V16.7213H75.5827V15.8633C75.077 16.4606 74.263 16.8754 73.2664 16.8754C71.6394 16.8754 69.5681 15.5868 69.5681 12.8873H69.5723ZM75.6481 12.8725C75.6481 11.737 74.8204 10.8167 73.6844 10.8167C73.137 10.8167 72.612 11.0341 72.225 11.421C71.8379 11.8079 71.6204 12.3327 71.6204 12.8799C71.6204 13.4271 71.8379 13.9519 72.225 14.3388C72.612 14.7257 73.137 14.9431 73.6844 14.9431C74.8162 14.9431 75.6439 14.007 75.6439 12.8757L75.6481 12.8725ZM32.8479 12.8757C32.8479 10.6669 31.2368 8.90343 28.8888 8.90343C28.3647 8.90232 27.8456 9.00469 27.3611 9.20466C26.8767 9.40463 26.4366 9.69827 26.066 10.0687C25.6954 10.4392 25.4016 10.8791 25.2016 11.3634C25.0015 11.8476 24.8991 12.3666 24.9002 12.8905C24.9002 15.0993 26.5567 16.8785 28.9501 16.8785C30.6076 16.8785 31.8006 16.0786 32.471 14.9336L30.804 13.9395C30.6306 14.2757 30.3665 14.5567 30.0417 14.7509C29.7169 14.945 29.3443 15.0445 28.9659 15.0381C27.8605 15.0381 27.1711 14.4861 26.9251 13.6419H32.8479V12.8757ZM27.017 11.9554C27.1751 11.5885 27.4392 11.2771 27.7756 11.0613C28.1119 10.8454 28.5051 10.7349 28.9047 10.7439C29.7947 10.7439 30.4535 11.1576 30.7301 11.9554H27.017Z" fill="#F1F1F1"/>
<path d="M18.2929 0.581957V3.19284H17.689V0.581957H16.7578V0.0595703H19.2293V0.581957H18.2929Z" fill="#F1F1F1"/>
<path d="M23.6285 3.19321H23.0563L22.3606 0.9137L21.6659 3.19321H21.0979L20.2227 0.045166L20.8561 0.0536086L21.4389 2.2698L22.0935 0.0536086H22.6973L23.3509 2.2698L23.9231 0.0536086H24.528L23.6285 3.19321Z" fill="#F1F1F1"/>
<path d="M25.7227 3.19284V0.0595703H26.3274V3.19284H25.7227Z" fill="#F1F1F1"/>
<path d="M27.7227 3.19284V0.0595703H28.3274V2.66095H29.3711V3.18862L27.7227 3.19284Z" fill="#F1F1F1"/>
<path d="M30.6289 3.19284V0.0595703H31.2326V3.19284H30.6289Z" fill="#F1F1F1"/>
<path d="M33.9753 3.25195C33.0853 3.25195 32.5078 2.59765 32.5078 1.62991C32.5078 0.662179 33.0895 0.000488281 33.9848 0.000488281C34.8801 0.000488281 35.4513 0.653736 35.4513 1.62147C35.4513 2.58921 34.8748 3.25195 33.9753 3.25195ZM33.9753 0.499658C33.44 0.499658 33.117 0.940785 33.117 1.62569C33.117 2.3106 33.44 2.75173 33.9753 2.75173C34.5106 2.75173 34.8474 2.31166 34.8474 1.62569C34.8474 0.93973 34.5159 0.499658 33.9795 0.499658H33.9753Z" fill="#F1F1F1"/>
<path opacity="0.35" d="M0.222656 7.76807V12.2458H4.70222V16.7246H9.18283V7.76807H0.222656Z" fill="#F1F1F1"/>
<path d="M4.70222 12.2454H0.222656V16.7231H4.70222V12.2454Z" fill="#F1F1F1"/>
<path opacity="0.75" d="M9.18374 7.76763V3.28882H4.70312V7.76763V12.2454H9.18374H13.6633V7.76763H9.18374Z" fill="#F1F1F1"/>
<path d="M13.6632 3.28979H9.18359V7.76755H13.6632V3.28979Z" fill="#F1F1F1"/>
</g>
</svg>
