<svg width="104" height="24" viewBox="0 0 104 24" fill="none" xmlns="http://www.w3.org/2000/svg">
<path opacity="0.6" d="M55.8111 16.3649C55.3198 16.3649 54.9214 16.7607 54.9214 17.2475C54.9214 17.7343 55.3198 18.1297 55.8111 18.1297C56.3025 18.1297 56.7022 17.7343 56.7022 17.2475C56.7022 16.7607 56.3025 16.3649 55.8111 16.3649ZM55.8111 17.9384C55.427 17.9384 55.1144 17.6287 55.1144 17.2475C55.1144 16.8662 55.427 16.5558 55.8111 16.5558C56.1963 16.5558 56.5093 16.8661 56.5093 17.2475C56.5093 17.6288 56.1962 17.9384 55.8111 17.9384ZM18.602 17.5437H20.7534V9.41525H18.602V17.5437ZM51.7882 12.5141L47.8946 9.19089V17.5321L50.056 17.5399V14.1058L53.9327 17.8699V9.44318H51.7882V12.5141ZM12.0085 15.5723C10.8446 15.5723 9.90125 14.637 9.90125 13.4841C9.90125 12.3302 10.8446 11.3957 12.0085 11.3957C12.5246 11.3957 12.9974 11.5794 13.3638 11.884L14.7561 10.3169C14.0187 9.68766 13.0581 9.30723 12.008 9.30723C9.68056 9.30723 7.79345 11.1768 7.79345 13.4841C7.79345 15.7913 9.68056 17.6603 12.008 17.6603C13.0667 17.6603 14.0343 17.2752 14.7745 16.6354L13.3821 15.0677C13.0132 15.3814 12.5335 15.5723 12.0085 15.5723ZM37.9748 6.58528H27.3272L24.8482 13.0035L22.369 6.58528H11.3726L10.2287 8.71928H15.1553L15.1528 17.5496H17.3731L17.3796 8.71928H20.7804L24.8483 19.4298L28.9164 8.71928H39.1495L37.9748 6.58528ZM33.9749 11.3337C34.0863 11.1769 34.4832 11.1769 34.4832 11.1769H35.8651V9.41227H33.6256C32.894 9.41227 31.8132 9.85298 31.8132 11.3337C31.8132 13.2866 34.2448 14.5631 34.006 15.3503C33.893 15.727 33.4339 15.7436 33.1955 15.7436H31.7183V17.5399H34.1332C35.1661 17.5399 36.1995 16.9101 36.1995 15.7125C36.1996 13.4277 33.3754 12.184 33.9749 11.3337ZM28.948 17.5392H31.0996V9.41104H28.948V17.5392ZM36.547 17.5409H38.6989V9.41227H36.547V17.5409ZM56.0618 17.2379V17.2355C56.1657 17.194 56.2112 17.111 56.2112 17.0023C56.2112 16.8612 56.1041 16.7451 55.9363 16.7451H55.4307V17.6755H55.6362V17.3119H55.8434C55.9467 17.3119 55.9844 17.3551 55.9995 17.453C56.0104 17.5274 56.0071 17.6173 56.032 17.6755H56.238C56.2012 17.6239 56.2028 17.5136 56.1987 17.4554C56.1919 17.3616 56.164 17.2632 56.0618 17.2379ZM55.8622 17.1666H55.6362V16.9042H55.8622C55.9543 16.9042 56.0041 16.9442 56.0041 17.033C56.0041 17.1263 55.9542 17.1666 55.8622 17.1666ZM0.0585938 17.5707H2.3467L2.91878 16.0586H5.5884L6.16069 17.5707H8.44879L4.25349 5.6628L0.0585938 17.5707ZM3.57029 13.8846L4.20647 11.8065L4.84162 13.8846H3.57029ZM43.3141 9.2984C40.9819 9.2984 39.0926 11.1724 39.0926 13.4825C39.0926 15.7934 40.982 17.6679 43.3141 17.6679C45.6455 17.6679 47.5358 15.7934 47.5358 13.4825C47.5357 11.1724 45.6455 9.2984 43.3141 9.2984ZM43.3141 15.5607C42.1559 15.5607 41.2174 14.6311 41.2174 13.4825C41.2174 12.335 42.156 11.4052 43.3141 11.4052C44.4727 11.4052 45.4115 12.335 45.4115 13.4825C45.4115 14.6311 44.4727 15.5607 43.3141 15.5607ZM59.6911 0.986328C59.5714 0.986328 59.4768 1.04722 59.4768 1.12187V23.8649C59.4768 23.9401 59.5714 24.0002 59.6911 24.0002C59.809 24.0002 59.9045 23.9401 59.9045 23.8649V1.12187C59.9044 1.04722 59.8089 0.986328 59.6911 0.986328ZM81.9016 14.664L81.9049 14.5702H81.4312L81.4219 14.6005L81.2771 14.9108C81.2436 15.0464 81.1872 15.164 80.9725 15.276L80.8627 15.1175L80.7807 15.1823C80.628 15.3216 80.5363 15.6345 80.512 15.7865C80.0424 15.8445 79.7143 16.3438 79.4957 16.6919C79.4175 16.8163 79.32 16.9732 79.2769 16.9923C78.9944 17.1235 78.8278 17.1255 78.729 17.1264L78.6043 17.143L78.1599 17.3742L77.8971 17.4783L77.7941 17.4854L77.7798 17.4887L77.7216 17.4097C77.8375 17.2259 78.0083 16.774 78.2356 16.1507C78.3523 15.8312 78.4834 15.4693 78.521 15.4191L78.5382 15.3946L78.5558 15.3631V14.9831C78.5691 14.7622 79.2878 12.8247 79.7435 12.6328L79.8131 12.6032L79.7972 12.5286C79.7821 12.4624 79.7588 12.3162 79.7588 12.1739C79.7588 12.0863 79.767 11.9995 79.7925 11.935C79.8851 11.6937 80.2995 11.4777 80.4513 11.4153L80.5078 11.3919V10.7035C80.6041 10.5862 80.6886 10.3721 80.7916 10.0912C80.9389 9.68992 81.1214 9.18987 81.3667 9.01521L81.4198 8.97824L81.4018 8.91663C81.4015 8.91335 81.3533 8.74187 81.3533 8.5477C81.3533 8.38413 81.3876 8.20455 81.514 8.09827L81.5474 8.07127V5.48054L81.458 5.25618L81.4052 5.138V4.32508L77.0499 4.30803L77.065 4.41256C77.0788 4.50302 76.9963 4.65181 76.9411 4.72471L76.9227 4.74833V6.11623L77.0909 6.25044C77.3061 6.46822 77.1492 7.05134 77.0709 7.25804L77.0617 7.28124L77.101 7.36154L77.1186 7.45632L77.1312 7.55109L77.214 8.06357L77.2459 8.08677C77.3597 8.16748 77.3548 8.19859 77.3464 8.25979C77.33 8.36401 77.3288 8.46833 77.4841 8.61167L77.5655 8.68735L77.6284 8.58631C77.8476 8.23319 77.9221 8.11408 77.9221 8.01305V6.87165C77.9221 6.71876 78.2821 6.54441 78.3979 6.54441H78.4901V6.45354C78.4901 5.87699 78.8253 5.71198 79.0945 5.5786C79.0945 5.5786 79.2386 5.48455 79.3059 5.44121C79.3426 5.44224 80.6719 5.45538 80.8318 5.45651V6.35784C80.5953 6.58045 80.4275 6.81436 80.2835 7.02044C80.1449 7.21953 80.0248 7.39183 79.8762 7.49841C79.7946 7.66281 79.7695 7.84547 79.7695 8.00966C79.7695 8.23104 79.8098 8.3904 79.829 8.45745C79.3941 8.86499 79.2908 9.09037 79.2707 9.18679C79.2224 9.22324 78.9207 9.45406 78.9207 9.45406C78.6616 9.84579 78.3858 11.2171 78.3741 11.2757C77.8962 11.7693 77.8342 12.1403 77.7999 12.3393L77.7798 12.4334C77.779 12.4289 77.437 12.816 77.2835 13.1156L77.1419 13.6381C77.1165 13.7984 77.0934 13.9493 77.0274 13.9961L76.9948 14.0186L76.9889 14.0738L76.9253 14.5722C76.8809 14.8171 76.8316 15.0863 76.8316 15.3353C76.8316 15.4154 76.8365 15.4934 76.8479 15.5673C76.8654 15.6014 76.9446 15.7068 76.9446 15.8433C76.9446 15.9127 76.9245 15.9895 76.865 16.0695L76.8102 16.1416L76.8859 16.1977C76.947 16.2429 77.1177 16.5974 77.132 16.6662L77.1362 16.7709L77.0282 16.8489L76.9915 16.8764L76.989 16.9236V17.7959C76.8869 17.8905 76.7772 18.0017 76.7772 18.0624L76.8508 18.2357L76.9597 18.3727L77.0107 18.3806H78.0788C78.2332 18.5337 78.5187 18.6001 78.5525 18.6067C78.7258 18.6088 78.7936 18.5129 78.8422 18.4432C78.8969 18.3656 78.9401 18.3038 79.1033 18.3038L79.2409 18.2956L79.2614 18.2892L79.3611 18.4366L79.4231 18.4574H81.0344L81.0613 18.4141C81.1401 18.2884 81.4823 18.1531 81.5527 18.1527L81.6476 18.1506L81.643 18.0572C81.5911 17.1286 81.5726 16.0956 81.6338 15.975L81.7572 15.7501C81.7886 15.6538 81.8049 15.6049 81.9116 15.5767L82.0121 15.5497L81.9723 15.4538C81.8978 15.278 81.8958 14.824 81.9016 14.664ZM87.9586 17.5317C87.9586 17.3856 87.8799 17.2919 87.8118 17.2085L87.7029 17.0666L87.6531 17.0595H86.9839C86.944 17.0176 86.7826 16.8442 86.7826 16.8442L86.7236 16.9507C86.4938 17.3197 86.3197 17.3886 86.0785 17.4844L85.5424 17.7608L85.3152 17.8421C85.1227 17.9001 84.8833 17.9707 84.7478 18.1164C84.6347 18.2367 84.615 18.3803 84.6004 18.4857C84.5845 18.6024 84.5762 18.6163 84.5484 18.6214L84.2488 18.6529C84.0823 18.6823 83.9503 18.7044 83.7896 18.6281L83.7185 18.5945L83.6594 18.6833L83.5987 18.7716L83.5405 18.7267C83.5648 18.6632 83.664 18.4064 83.664 18.4064C83.7046 18.3287 83.7975 18.0981 83.7975 17.9483L83.7928 17.9196C83.9036 17.769 84.2373 17.179 84.3021 16.745L84.3031 16.0029L84.724 14.822L84.729 13.2334C84.7777 13.0354 84.8647 12.9488 84.9563 12.857L85.1497 12.5783L85.1542 12.0739C85.3493 11.8603 85.433 11.5521 85.4991 11.2724C85.5477 11.068 85.5983 10.8568 85.6837 10.7964L85.7213 10.7705L85.7644 9.37356C85.7556 9.32818 85.7523 9.28556 85.7523 9.24521C85.7523 9.09643 85.8038 8.97917 85.8649 8.8386L85.997 8.45745L86.1474 7.57871C86.1553 7.43598 86.1989 7.40877 86.264 7.3675L86.429 7.17364C86.45 7.10268 86.4562 7.01684 86.4562 6.93573C86.4562 6.82268 86.445 6.73653 86.4374 6.68632L86.5206 6.60766C86.72 6.42068 86.7864 6.35784 86.855 6.10556C86.8744 6.0346 86.8797 5.95 86.8797 5.87011C86.8797 5.74895 86.8684 5.6552 86.8617 5.61095C87.1179 5.34665 87.2371 5.05596 87.3195 4.83951L87.449 4.56258L87.4611 4.52315V4.31522L87.2827 4.31995L87.2756 4.32241L87.1723 4.1687L87.1212 4.16562L83.5001 4.16274L82.3256 4.16562H82.2344L82.2394 4.25628V6.80871C82.103 6.93655 82.0248 7.05206 82.0248 7.14735L82.0646 7.35333C82.0822 7.41001 82.099 7.46556 82.099 7.53959C82.099 7.61352 82.0822 7.70562 82.0311 7.83736L82.008 7.8965L82.2875 8.13534L82.3726 8.06901C82.4419 7.95739 82.4864 7.95945 82.5601 7.96232C82.8205 7.97485 82.9526 7.8387 83.0953 6.97177C83.2381 6.10884 83.4732 5.80121 83.5382 5.79269L83.6901 5.76137C83.8432 5.72009 84.1003 5.64996 84.2166 5.76589L84.3229 5.91467L84.3882 5.94476H85.0925L85.1341 5.99014L85.1465 6.00092L85.1474 6.00637C85.1474 6.02464 85.1365 6.05956 85.0486 6.11952L85.0079 6.14714L85.0063 6.19653V6.65756C84.6066 7.05658 84.0122 8.37931 84.0122 8.51659V8.92372C83.9841 9.17765 83.8276 9.44883 83.7147 9.647L83.5886 9.9116L83.5862 10.049L83.5879 10.1517C83.5879 10.3567 83.4021 10.5424 83.4001 10.544L83.3765 10.5679L83.3677 10.6767L83.3783 10.8292L83.4816 10.9552L83.5151 10.9885L82.6701 13.2014C82.658 13.2511 82.5266 13.9017 82.5266 14.5914C82.5266 14.9507 82.5625 15.3197 82.6693 15.6205L82.7467 15.7674L82.8061 15.9342C82.8073 15.9492 82.8571 16.2321 82.8571 16.5255C82.8571 16.6704 82.8454 16.8164 82.8094 16.9343L82.7199 17.1509L82.6638 17.303C82.6914 17.3902 82.7123 17.4944 82.7123 17.579C82.7123 17.6321 82.7035 17.6761 82.683 17.7031L82.5516 17.8131L82.5244 17.8967C82.5382 17.9483 82.56 18.0595 82.56 18.1641C82.56 18.2251 82.5525 18.2845 82.5315 18.3272L82.3412 18.516L82.2205 18.5998L82.2445 18.6637C82.2653 18.7252 82.2921 18.8375 82.2921 18.9343C82.2921 18.9907 82.2829 19.0422 82.2591 19.0716L82.1373 19.1737L82.097 19.2434V19.7759L82.0887 19.8548C82.0828 19.8988 82.0748 19.9536 82.0748 20.0133C82.0748 20.1299 82.1037 20.2702 82.2269 20.4021L82.254 20.4315H82.2942C82.4893 20.4315 82.7199 20.3336 82.9049 20.2544L83.1287 20.1688L83.5375 20.1601L84.2666 20.1444C84.4835 20.0751 84.6961 19.932 84.8304 19.7901C84.899 19.7966 85.5499 19.8664 85.5499 19.8664L85.5406 19.8771L85.5866 19.973L85.6151 20.0133L85.6656 20.0183H87.812L87.8183 19.8399L87.9191 19.7727L87.9556 19.7452L87.9581 19.6988V18.4067L87.8988 18.2369L87.8158 17.9493C87.8158 17.7601 87.8659 17.6987 87.9015 17.6538L87.9586 17.5317ZM73.3284 4.84516C73.3895 4.93151 73.4526 4.94414 73.6163 4.94732C73.6695 5.05082 73.777 5.10915 73.8866 5.14046C74.0441 5.18616 74.1499 5.22425 74.1801 5.33864V5.33905L74.3595 8.36452L74.362 8.41453L74.4943 8.48466C74.4553 8.51064 74.3536 8.58241 74.3536 8.58241L74.3595 8.62533L74.4055 14.617C74.2833 14.7682 74.2168 15.0404 74.2168 15.2047L74.3143 15.5417L74.3595 15.662L74.365 15.8031L74.2219 15.9192L74.2168 15.9666C74.2168 15.969 74.2177 16.009 74.2177 16.075C74.2177 16.4272 74.2072 17.5348 74.0975 17.8705L74.0474 17.9054L73.6996 18.207L73.4054 18.6026L73.4736 18.6669L73.5774 18.7602L73.7034 18.8342C73.7678 18.9154 73.8708 18.8324 74.1177 18.5888C74.342 18.5 75.5742 18.4581 75.7172 18.5531L75.754 18.5767L75.8084 18.558L76.016 18.4928C76.0629 18.5074 76.1191 18.5066 76.1191 18.5066L76.4806 18.5684L76.4814 18.4498L76.4191 18.0069L75.7423 17.5766C75.5121 17.4472 75.5071 17.4447 75.4393 17.1621L75.412 17.0605C75.3656 16.8937 75.3446 16.8017 75.4217 16.7077L75.5455 16.6062L75.5832 16.5435L75.6592 15.4965L75.63 15.4608C75.584 15.4014 75.4451 15.004 75.4417 14.9383L75.3522 14.3221C75.3249 14.2255 75.3049 14.1524 75.3049 14.0868C75.3049 14.0096 75.3337 13.9433 75.4158 13.8619L75.5777 13.7325L75.5832 13.696V13.0959L75.5498 13.0453L75.5312 12.8121L75.5216 12.6377L75.4865 12.1632L75.4873 12.1317C75.4873 12.0781 75.481 11.9973 75.481 11.9973C75.473 11.934 75.4646 11.8579 75.4646 11.7801C75.4646 11.6628 75.4852 11.5439 75.5592 11.4624L75.7271 11.3297L75.7254 11.2719L75.6558 10.8822L75.624 10.8316L75.588 10.6657C75.5729 10.5693 75.5496 10.4935 75.5126 10.4358C75.559 10.1272 75.5762 9.6662 75.5762 9.15701C75.5762 8.5321 75.5528 7.84363 75.5343 7.30445L75.5118 6.45662C75.5118 6.41411 75.526 6.40138 75.5738 6.36452C75.6348 6.3178 75.726 6.24767 75.726 6.07629C75.726 5.91231 75.6973 5.84095 75.6111 5.79577L75.583 5.62008C75.583 5.3565 75.9454 5.07403 76.2702 4.9847L76.3371 4.96642V4.63682L76.2572 4.54112L76.1061 4.34007L76.0366 4.35537C75.793 4.44542 73.7255 4.44337 73.4012 4.35291L73.3405 4.33668L73.2961 4.39644L73.1136 4.63877L73.1805 4.70407L73.3284 4.84516ZM91.1787 11.8382L91.1828 11.7835L91.2217 10.9888V10.9421L91.1837 10.9153C91.0954 10.8521 91.0757 10.8209 91.0757 10.7881L91.08 10.7516L91.0916 10.6637C91.0916 10.5886 91.0506 10.4993 90.9392 10.3863V9.7659L90.7979 9.6548L90.3436 7.91447C90.1972 7.54133 89.8272 6.53507 89.8272 6.2338V5.81569L89.7457 5.62645C89.677 5.54451 89.5507 5.39326 89.3229 4.90255L89.2961 4.75459C89.2609 4.49635 89.1957 4.01345 88.8135 4.01345L88.5758 4.10062C88.4817 4.19427 88.4696 4.33812 88.4696 4.48701L88.4712 4.62809C88.4712 4.8391 88.4495 4.91446 88.3528 4.92668C88.3134 4.94075 88.105 5.15073 88.105 5.15073L87.9895 5.27446L87.9761 5.32149V5.90225C87.9296 5.96417 87.7618 6.18842 87.7618 6.18842L87.7029 6.30393C87.5499 6.57717 87.4219 7.00627 87.3973 7.0918L87.3709 7.11008L87.2613 7.20526C87.2136 7.26687 87.1982 7.32807 87.1982 7.38495C87.1982 7.43978 87.2119 7.49071 87.2245 7.53671L87.2438 7.72677C87.1094 7.86354 87.017 8.05566 86.9231 8.26461L86.8604 8.40282C86.7458 8.65223 86.7236 8.93358 86.7043 9.18124C86.6825 9.47778 86.6625 9.73356 86.4962 9.83049L86.4506 9.8577V9.90914C86.4506 10.3463 86.295 10.6804 86.2932 10.6839L86.1857 10.855L86.02 11.1721L86.0065 11.5367L86.0015 11.9212C85.9672 12.1481 86.0283 12.2251 86.1304 12.2701L86.1405 12.2729L86.1413 12.2815C86.1413 12.3581 86.1283 12.3738 86.0393 12.4363L85.9998 12.4626V13.0735L85.9848 13.085L85.8796 13.1739C85.8077 13.2569 85.7838 13.3738 85.7838 13.4896C85.7838 13.6634 85.8339 13.8196 85.8533 13.8775C85.8232 13.9568 85.7813 14.1456 85.7165 14.7067L85.711 14.7565L85.7717 14.8017L85.8584 14.871C85.8574 14.8933 85.7704 14.9403 85.7169 14.9697L85.4264 15.2029C85.3151 15.3931 85.2954 15.7009 85.2928 15.7847C85.241 15.842 84.7564 16.3882 84.7564 16.3882L84.7935 16.4487L84.8834 16.6372L85.0254 16.9923L85.1041 16.9483L86.5472 16.4388C86.697 16.3969 87.3299 16.4176 87.7183 16.4429L87.7761 16.4466L87.8146 16.369L87.9509 16.1217C87.997 16.0619 88.0364 16.0123 88.0364 15.9582L88.028 15.9183L88.0188 15.8918L87.933 15.8419L87.7569 15.7158C87.6924 15.6536 87.6157 15.6 87.5316 15.5684V14.831C87.5291 14.8119 87.468 14.6289 87.4254 14.5027H87.6271C87.7204 14.592 87.9171 14.7048 88.2632 14.8932C88.5993 15.0751 89.2979 15.4535 89.2996 15.588C89.2589 16.8113 88.4114 17.7259 88.4022 17.7349L88.3779 17.7608V17.7972C88.3779 18.1827 88.6249 18.4291 88.8246 18.6263C88.9656 18.7664 89.0879 18.8877 89.0879 19.0154V19.4328L89.5172 20.8281L89.5131 21.7392L89.719 21.6509L89.7825 21.6913L89.9532 21.609L90.0788 21.4966L90.0871 21.4498V20.8446L90.222 20.7359L90.2287 20.6886V20.2122C90.3278 20.0894 90.3877 19.901 90.4387 19.7083C90.4869 19.532 90.5403 19.3328 90.6161 19.2777L90.6538 19.2511V18.4253C90.8425 18.2145 90.9732 17.8266 91.0858 17.47C91.1602 17.2307 91.2548 16.9331 91.3259 16.8833L91.3528 16.8625L91.3616 16.8302C91.4063 16.651 91.4247 15.8716 91.4247 15.0932C91.4247 14.3441 91.408 13.596 91.3825 13.3753C91.3278 13.2352 91.1787 12.1232 91.1787 11.8382ZM89.569 13.8037C89.513 13.8078 89.4594 13.8078 89.3915 13.8037C89.0853 13.7082 88.8625 13.4294 88.4691 13.3473C88.1448 13.2788 87.8162 13.3132 87.6178 13.3473C87.6178 13.3473 87.6156 13.271 87.7593 13.2336C87.8241 13.0004 87.7057 12.2032 87.7593 11.9025C87.8839 11.7738 87.9007 10.9576 87.9007 10.9576C88.2288 10.9353 88.089 10.5924 88.3276 10.4249L88.3598 9.47922C88.3598 9.47922 88.5009 10.0128 88.7015 10.2282C88.8684 10.4077 89.0886 10.3238 89.2853 10.5006C89.5239 10.7138 89.4197 11.4592 89.569 11.5655C89.6185 11.8675 89.569 13.8037 89.569 13.8037ZM81.1927 19.1866L81.1039 19.184C79.6784 19.1372 76.3407 19.058 76.1264 19.3435C75.6405 19.6796 75.083 19.5236 74.6753 19.4095C74.474 19.3539 74.3288 19.3129 74.2221 19.339L74.1028 19.4083C74.1028 19.4083 73.8789 19.622 73.8166 19.6812C73.4883 19.7303 73.2711 19.7161 73.0438 19.6987C73.0438 19.6987 72.8292 19.6872 72.7266 19.683C72.7107 19.4481 72.6538 19.3461 72.5876 19.2921L72.5858 19.2911L72.5921 19.2638L72.6993 19.0832L72.714 19.0603L72.7379 19.0089V18.1009L72.8747 17.9914L72.881 17.9441V17.3375L72.9232 17.2997C73.0161 17.2196 73.0233 17.1894 73.0233 17.0312L72.9634 16.8018L72.8898 16.7085C72.9031 16.6661 72.9187 16.6148 72.9187 16.6148C72.96 16.464 72.9793 16.4148 73.0874 16.3973L73.1623 16.3857L73.1644 16.3114C73.1661 16.2682 73.1761 16.0072 73.1761 15.7865C73.1761 15.6594 73.1727 15.5454 73.1623 15.4923L73.1559 15.4591L73.0178 15.3496C73.0178 15.3496 73.022 14.4524 73.0233 14.3732L73.1543 14.2661L73.1644 14.2217C73.1753 14.0444 73.2398 12.9834 73.2398 12.1447C73.2398 11.665 73.2189 11.2588 73.1544 11.132L72.9786 10.9396L72.8812 10.863V7.90688L73.0156 7.79814L73.0235 7.74998V7.09478L72.9851 7.06716C72.7469 6.89671 72.7376 6.81046 72.7376 6.80922C72.7381 6.72523 72.7485 6.71065 72.8418 6.64514L72.8812 6.61834V5.15494L72.8427 5.12773C72.6882 5.01776 72.3421 4.60837 72.222 4.4598L72.0245 4.42868C71.9466 4.44696 71.8503 4.47037 71.6621 4.1651L71.6344 4.12136H70.4943C70.4675 4.08234 70.3929 3.97607 70.3929 3.97607L70.3402 3.96929H70.1L70.0728 4.04374L70.0103 4.20125L69.8818 4.34459L69.9668 4.39983C70.4958 4.77769 70.5603 4.95441 70.5904 5.0385L70.7134 5.20587L70.7569 5.17784C71.0419 5.16726 71.0699 5.23062 71.0699 5.23308C71.0779 5.24838 71.2808 5.62645 71.3136 6.0075V6.01787C71.3136 6.15135 71.1479 6.586 71.0834 6.6667L71.029 6.73724L71.2365 6.90431C71.2431 6.94497 71.2467 7.01551 71.2467 7.10186C71.2467 7.3407 71.2236 7.68858 71.2091 7.86159L71.1228 7.94754L70.9319 8.12076L70.9227 8.16789V9.31442L71.065 9.42788V11.5643L71.1052 11.5911C71.1429 11.6167 71.2354 11.7314 71.2458 11.8416L71.2467 11.8623C71.2467 11.9902 71.1378 12.1402 71.1043 12.1628L71.0658 12.1904L71.065 12.2378V13.7575C71.0641 13.7181 70.9629 13.7982 70.9629 13.7982L70.9353 13.8201L70.9235 13.8582C70.9218 13.8716 70.8868 14.0806 70.8868 14.3845C70.8868 14.5298 70.8976 14.701 70.9211 14.8799L70.9076 14.9031L70.7972 14.9904L70.7772 15.0463L70.7805 16.9644L70.8198 16.9906C70.9483 17.0811 71.0651 17.1752 71.0651 17.3358L71.0693 17.4494L70.9613 17.5271L70.9252 17.5549L70.9228 17.6013V18.0948C70.9228 18.0545 70.8224 18.1334 70.8224 18.1334L70.7863 18.1599L70.7804 18.2097V19.3591L70.8239 19.3902C70.8971 19.4422 70.9227 19.4643 70.9227 19.5036C70.9227 19.5488 70.8801 19.5808 70.8348 19.6089L70.792 19.6355L70.7804 19.6941V20.2978C70.731 20.3393 70.4523 20.5692 70.4523 20.5692L70.2904 20.7071L69.9066 20.9055L69.8763 20.9228L69.8602 20.9693L69.797 21.1287L69.6818 21.2574L69.7547 21.3271L69.9209 21.5064L69.9979 21.4827C70.1796 21.3711 70.8627 21.4317 71.2494 21.4948L71.3239 21.5073L71.3486 21.4366C71.4083 21.2773 71.9231 20.9137 72.2341 20.7212L72.717 20.7359C72.7695 20.742 73.0439 20.8275 73.1009 20.9205L73.1278 20.9636H73.1788C74.2963 20.962 76.4165 20.9641 76.7371 20.9902L76.743 20.9997C76.799 21.0907 76.8664 21.174 77.0752 21.1914H78.4314C78.5578 21.3333 78.6532 21.3508 78.7427 21.3391C78.7855 21.3337 78.809 21.3313 78.8846 21.4525L78.9118 21.4965H79.4233L79.4082 21.5114L79.4501 21.6024L79.4769 21.6434L79.5305 21.6485H81.5369L81.1887 20.9994L81.1927 19.1866ZM102.73 3.45024C102.239 3.45024 101.84 3.84618 101.84 4.3336C101.84 4.8201 102.239 5.21532 102.73 5.21532C103.222 5.21532 103.621 4.8201 103.621 4.3336C103.621 3.84618 103.222 3.45024 102.73 3.45024ZM102.73 5.02402C102.346 5.02402 102.033 4.71424 102.033 4.3335C102.033 3.95194 102.346 3.64174 102.73 3.64174C103.115 3.64174 103.428 3.95194 103.428 4.3335C103.428 4.71424 103.115 5.02402 102.73 5.02402ZM102.699 8.95545L102.675 8.91201L102.606 8.69916L102.485 8.40508L102.518 8.47726L102.559 6.98676L102.519 6.95832C102.446 6.90687 102.433 6.87679 102.374 6.70459L101.982 5.77605L101.746 5.5404C101.588 5.40866 101.393 5.2454 101.267 5.04538L101.241 5.00246H100.581C100.553 4.96283 100.479 4.85655 100.479 4.85655L100.426 4.84998H99.87C99.8428 4.81076 99.7687 4.70448 99.7687 4.70448L99.7159 4.69801H99.2974L99.2673 4.66105L99.1279 4.47807L99.0768 4.46996H98.6436C98.4732 4.29397 98.2217 4.18944 98.0125 4.11038C97.8743 4.05893 97.6872 3.98798 97.6769 3.93448L97.6621 3.86097H97.1746C97.1461 3.82246 97.0707 3.71495 97.0707 3.71495L97.0193 3.7089H96.1541L96.2729 3.85727C96.3156 3.90933 97.2154 4.75829 97.531 5.05586V5.85389C97.5268 5.81528 97.4293 5.8926 97.4293 5.8926L97.3941 5.92022L97.3887 5.96817V7.07075L97.2873 7.10997L97.253 7.13667L97.2464 7.18462V10.0095L97.2706 10.0588L97.3159 10.2859L97.4016 10.5823L97.3728 10.511L97.3142 11.5237L97.4524 11.6357C97.4339 11.7258 97.424 11.8579 97.424 12.0278C97.424 12.3484 97.4478 12.7342 97.4583 12.8963L97.5487 13.1155L97.5997 13.2333V13.6516C97.5997 13.7449 97.9191 14.7661 98.2375 15.1172C98.2317 15.1749 97.9772 17.6759 97.9772 17.6759C97.9847 17.722 98.2676 18.3689 98.2676 18.3689L98.4318 18.7747C98.4643 18.8536 98.5376 18.8569 98.5698 18.8584L98.5731 18.8875C98.5648 18.9414 98.3957 19.0369 98.0693 19.1688L97.9123 19.2335L97.9446 19.3158C97.9454 19.3199 98.1092 19.7556 98.1092 20.0718L98.1062 20.1407C98.0764 20.4851 97.9095 20.8374 97.6621 21.0827L97.5751 21.1691L97.6835 21.2275C97.8086 21.2943 98.4938 21.2113 98.7315 21.1001C98.7528 21.0902 98.7993 21.0587 98.8329 21.015L98.9918 21.0868L99.2973 21.1773C99.4764 21.0827 99.7883 20.9993 100.089 20.9191C100.622 20.7748 100.904 20.6902 100.96 20.5498L101.043 20.475L101.233 20.2145L101.469 19.7654L101.529 19.5954L101.68 18.7962C101.803 18.4988 101.801 18.1808 101.799 17.8733C101.798 17.5833 101.797 17.309 101.904 17.06C102.045 16.5376 101.888 14.3328 101.883 14.239L101.852 14.3129L101.901 14.1613L101.985 13.7588L102.082 13.0398C102.118 13.0323 102.28 12.8788 102.409 12.5849C102.484 12.4467 102.504 12.281 102.504 12.1072C102.504 12.0068 102.497 11.9039 102.49 11.8025L102.484 11.4298C102.518 11.3681 102.586 11.2514 102.586 11.2514L102.665 11.0949L102.694 11.0571C102.738 10.9351 102.753 10.6521 102.753 10.3318C102.753 9.76446 102.708 9.08041 102.7 8.96613L102.699 8.95545ZM101.234 11.1456C101.033 11.2519 100.89 12.1682 100.89 12.1682C100.89 12.1682 100.59 12.3121 100.623 12.8136C100.522 13.0646 100.525 15.9183 100.525 15.9183C100.467 16.2561 100.291 16.4333 100.135 16.9633C100.18 17.828 99.403 18.6795 99.3464 18.741L99.3673 11.9055C99.2358 11.8378 99.0832 11.1869 99.0832 10.9932C99.0832 10.9932 99.009 10.8146 98.9692 10.75C98.9676 10.8083 98.9633 10.8363 98.9567 10.8218C98.9325 10.7126 98.9442 10.7101 98.9692 10.75C98.9831 10.3522 98.9115 8.51187 98.9115 8.51187L98.8713 8.33043L98.9324 7.74998C99.3254 7.72318 99.4488 7.75974 99.8147 7.75974C100.021 7.75974 100.035 8.06408 100.382 8.06408C100.382 8.44051 100.72 8.51331 100.915 8.78674C100.978 8.87823 101.057 9.6049 101.234 9.69906V11.1456ZM102.981 4.32374V4.32087C103.085 4.27918 103.13 4.19683 103.13 4.08809C103.13 3.9466 103.024 3.83078 102.856 3.83078H102.349V4.76116H102.556V4.39726H102.762C102.865 4.39726 102.903 4.44121 102.919 4.53866C102.929 4.61238 102.926 4.70284 102.951 4.76116H103.157C103.12 4.70972 103.122 4.59862 103.118 4.54102C103.111 4.44655 103.082 4.3489 102.981 4.32374ZM102.781 4.25197H102.556V3.98973H102.781C102.873 3.98973 102.923 4.02936 102.923 4.11859C102.923 4.21254 102.873 4.25197 102.781 4.25197ZM69.9642 17.5339C69.9777 17.4599 69.9838 17.3835 69.9838 17.3068C69.9838 17.1205 69.9513 16.9313 69.9232 16.7691C69.9065 16.6686 69.8843 16.5396 69.8843 16.464L69.8935 16.4072C70.0898 16.1582 70.1433 15.8669 70.1433 15.5548C70.1433 15.368 70.1233 15.1726 70.1048 14.9738L70.0613 14.2451V13.6277C70.083 13.5808 70.1065 13.5288 70.1065 13.5288L69.9375 13.3027L69.8026 13.1679C69.7202 12.9818 69.6922 12.7437 69.6922 12.5083C69.6922 12.0294 69.8061 11.5594 69.8081 11.5525L69.822 11.4956L69.6482 11.36V11.347C69.6482 11.3021 69.6122 11.23 69.3933 11.0176L69.3348 10.9603L69.2635 11.0256C69.2371 10.9989 69.2075 10.9351 69.2075 10.8943L69.2108 10.8731C69.2553 10.8144 69.3828 10.6139 69.3828 10.4385L69.3628 10.3297C69.3402 10.2765 69.2887 10.2077 69.1694 10.1842C68.7919 10.1468 68.5672 9.96726 68.5503 9.91736C68.6399 9.84178 69.1653 9.22396 69.3732 8.83264L69.901 7.85441C70.0127 7.75101 70.0462 7.59812 70.0462 7.41411C70.0462 7.27221 70.0261 7.11285 70.0044 6.9425L69.9524 6.31964C69.9524 5.8926 69.6673 5.10771 69.2029 4.79915C69.0079 4.66947 68.8069 4.68487 68.7383 4.69339L68.668 4.63815C68.5671 4.57049 68.4282 4.47838 68.3889 4.31984L68.3737 4.26121L68.3135 4.25187C67.7803 4.1686 67.5266 4.19067 67.1743 4.22137L66.2234 4.26635L65.4767 4.24211C65.4633 4.24211 64.5107 4.28545 64.2654 4.42406H63.503L63.3774 4.58671L63.3146 4.85686L63.3125 4.99712C63.3125 5.05503 63.3196 5.09231 63.3723 5.12516L63.469 5.24612L63.9457 5.70048L63.9592 5.71629C63.9081 5.71876 63.8545 5.72122 63.8545 5.72122C63.8545 5.72122 63.9265 5.7702 63.9877 5.81086C63.996 5.87165 64.0202 5.8926 64.124 5.8926C64.1642 5.91457 64.2043 5.93326 64.2437 5.89157L64.247 5.88531L64.3333 5.88048L64.3926 5.94466L64.3909 5.94989L64.3867 6.09139L64.3972 6.27713L64.2989 6.3485L64.2629 6.3753L64.2444 6.43403V9.97065C64.2569 10.0183 64.4119 10.2711 64.4119 10.2711C64.4202 10.447 64.4252 10.7114 64.3985 10.7628L64.2583 11.0796L64.2444 12.1C64.2524 12.1403 64.3583 12.3621 64.3595 12.3641L64.3586 12.3795C64.3586 12.4812 64.3867 13.0517 64.3867 13.0559C64.3859 13.0372 64.3508 13.123 64.2486 13.1322L64.1657 13.1397L64.1503 14.3704L64.1197 15.8324L64.2232 16.9872L64.2453 17.2473C64.3131 17.7532 64.2971 18.0763 64.275 18.5245L64.2444 19.633C64.1435 20.1557 63.9715 20.808 63.923 20.882C63.856 20.9454 63.6366 21.0429 63.5136 21.0895L63.3689 21.143L63.6008 21.3397L63.6869 21.4165L63.7744 21.3981L64.0201 21.4085C64.218 21.4277 64.3587 21.4356 64.4512 21.3998C64.9425 21.4824 65.7319 21.5695 65.8629 21.3086C65.9562 21.2213 66.0149 21.2023 66.0459 21.2031L66.1696 21.2928C66.2183 21.3467 66.2731 21.4085 66.358 21.4061C66.4162 21.404 66.4689 21.3716 66.5199 21.3078C66.5785 21.2696 67.044 21.1804 67.4365 21.1248L67.4909 21.117L67.5098 21.0667C67.57 20.9062 67.781 20.7564 68.005 20.5982L68.1522 20.492C68.4749 20.255 69.0555 19.9899 69.0612 19.9869L69.1102 19.9641L69.1154 19.9127C69.1154 19.9061 69.1705 19.3039 69.3099 18.9581C69.4225 18.6711 69.7122 18.2602 69.7146 18.2569L69.9642 17.5339ZM68.0892 16.4062C68.1088 16.5167 67.875 17.3719 67.8189 17.4096C67.7261 17.864 67.8381 18.433 67.6012 18.6429C67.4095 18.7799 67.1199 19.2954 66.8289 19.3148L66.5114 19.5991C66.3196 19.6751 65.9965 19.7079 65.9965 19.7079C65.9965 19.7079 66.3706 19.043 66.2932 19.1353C66.2777 19.3203 66.2564 18.5902 66.2564 18.5902C66.2564 16.5698 66.2184 17.7973 66.2949 17.303C66.3096 17.2106 66.3741 17.1824 66.4372 17.1134V14.5149C66.3398 14.4758 66.2861 14.3904 66.2949 14.2862C66.3029 14.1944 66.3497 14.1305 66.4372 14.0961L66.5787 13.4109C66.5787 13.4109 66.3782 12.631 66.5787 12.3837C66.6113 12.0221 66.5783 10.8832 66.5783 10.8832L67.0277 11.3416C67.0277 11.3416 67.3393 11.6396 67.6012 11.7793C67.6012 11.7793 67.9707 12.098 67.8154 12.2458C67.7084 12.3211 68.0611 12.5718 67.8188 12.5841C67.8188 12.5841 68.0632 12.8482 67.9259 13.12C68.1138 13.2191 67.8555 13.6888 67.8555 13.8648C67.8555 14.4583 68.0891 14.0417 68.0891 14.7532C67.6089 15.0947 68.3369 15.7496 68.0347 15.962C68.2382 16.0922 68.0147 16.2844 68.0892 16.4062ZM67.9635 6.73653C67.9172 6.75983 68.1042 7.26163 68.1042 7.26163C67.9166 7.36062 67.9628 8.29162 67.9628 8.46628C67.1191 8.53148 67.314 9.2257 66.9336 9.34122C66.9089 9.34892 66.8448 9.22734 66.5786 9.34122V6.53928C66.8084 6.41565 66.6643 6.41278 66.7657 6.14755C66.8151 6.12969 66.8968 6.08307 66.8968 6.08307C66.9189 6.13184 66.9189 6.18534 66.8968 6.23473L67.4308 6.15885H67.5358C67.7494 6.61557 67.9167 6.36359 68.2465 6.53938L67.9635 6.73653ZM97.2027 16.7391L97.1428 16.72L97.0412 16.6869C97.0466 16.6512 97.0908 16.2706 97.1278 16.2089L97.1441 16.1811L97.1419 16.1415L97.1009 15.8614C96.9652 14.8983 96.9059 14.5498 96.8664 14.4805L96.8267 14.4061L96.6991 14.4655C96.6664 14.4464 96.6389 14.2887 96.6283 14.2293C96.614 14.1463 96.6037 14.0858 96.5693 14.0492C96.5409 13.9725 96.527 13.6069 96.5174 13.3613C96.499 12.8832 96.4863 12.6653 96.4395 12.5878L96.3735 12.3298L96.3294 12.1203L96.288 11.9511L96.2889 11.9298C96.2889 11.8146 96.2127 11.7862 95.9876 11.7021L95.988 11.7001L95.9742 11.595C95.9649 11.4702 95.9504 11.2822 95.7649 11.2177C95.3825 10.7409 95.1898 10.7357 94.9437 10.7847C94.9437 10.7847 94.8839 10.7855 94.8265 10.7855C94.8534 10.749 94.8826 10.7201 94.8826 10.6475C94.8826 10.6241 94.8809 10.4814 94.8793 10.4141C95.6636 10.3639 96.227 9.73212 96.5446 8.50109L96.5476 7.87145C96.574 7.8119 96.6086 7.7355 96.6086 7.7355L96.6635 7.58508L96.6907 7.53487C96.6949 7.45868 96.7125 7.1953 96.7125 6.9655C96.7125 6.81631 96.705 6.68108 96.6832 6.62173L95.96 5.1111L95.8964 5.07937L95.7097 4.93387C95.5034 4.75541 95.2209 4.51165 94.9061 4.47037L94.6475 4.46144L94.5923 4.46226C94.1164 4.31471 93.5493 4.13625 93.489 4.10493L93.4695 4.09456L93.4385 4.08912H92.7399L92.7097 4.0499C92.6482 3.962 92.6101 3.93685 92.4812 3.93685L92.1071 4.03645L90.0647 4.08912L90.0488 4.26881L90.5669 4.38063C90.6071 4.41195 90.6628 4.45528 90.6628 4.45528C90.9159 4.63374 91.5857 5.10596 91.6092 5.47941L91.6133 5.55765L91.6552 5.55293L91.9318 5.57552C91.9744 5.56145 92.0992 5.46452 92.0992 5.46452L92.1063 5.45354C92.1598 5.46534 92.3574 5.51381 92.4829 5.55416C92.1909 5.93531 91.8192 6.21419 91.5366 6.4138L91.1796 6.68703L91.1829 6.71732C91.1621 6.88685 91.1512 7.13143 91.1512 7.37592C91.1512 7.62122 91.162 7.86498 91.1829 8.03369L91.1881 8.06778L91.3232 8.18411L91.3224 8.1873L91.3202 8.22108C91.3202 8.28957 91.3596 8.3636 91.4672 8.47316C91.4675 8.53148 91.4742 9.16492 91.4742 9.16492L91.4936 9.21246L91.52 9.4747C91.532 9.69854 91.5404 9.77514 91.5872 9.81806C91.6359 9.92434 91.6432 10.0998 91.6432 10.1911L91.6416 10.2489L91.6408 10.2599L91.6662 10.313L91.7009 10.4894L91.7806 10.7514L91.7496 10.6792V11.2007L91.7856 11.2509L91.8342 11.3575C91.8342 11.3575 91.8673 11.4187 91.8927 11.4675L91.9606 12.0569L91.9848 12.1061L92.0006 12.2142L92.063 12.4244L92.0342 12.3582C92.035 13.1411 92.036 14.3478 92.036 15.2144C92.036 15.8052 92.036 16.2381 92.0342 16.2713L92.0317 16.3173L92.1804 16.436C92.2017 16.5862 92.2135 16.7157 92.2135 16.8069C92.2135 16.9032 92.2037 16.9646 92.1887 16.9904C91.9983 17.1563 91.5564 18.6526 91.4697 18.9522V18.958C91.4697 19.095 91.5912 19.1755 91.8083 19.3199C92.2328 19.6034 93.0208 20.1291 93.4545 21.3038L93.56 21.5897L93.6303 21.2943C93.7383 20.8395 93.7664 20.5531 93.7664 20.3644C93.7664 20.2424 93.755 20.1622 93.7455 20.1012L93.7602 20.0928L93.8643 19.9936C93.8765 19.9372 93.8824 19.865 93.8824 19.7825C93.8824 19.5509 93.8422 19.2338 93.8032 18.9255L93.7408 18.3553C93.8375 18.1453 93.8672 17.8423 93.8672 17.5316C93.8672 17.3286 93.855 17.122 93.8392 16.9329L93.7517 16.742L93.7156 16.6842L93.7152 16.6746C93.7152 16.6104 93.7696 16.5484 93.7813 16.539L93.8094 16.5136L93.8158 16.473V16.4589C93.8158 16.3344 93.755 15.7759 93.6567 14.8945C93.5688 14.1127 93.45 13.0554 93.45 12.8619L93.4512 12.8399L93.5346 12.5982L93.5865 12.5031C93.7192 12.226 93.7577 12.0968 93.7577 11.9549L93.7489 11.8551C93.9681 12.017 94.277 12.5721 94.4418 12.8745L94.5454 13.0637L94.5473 13.0936C94.5473 13.1903 94.5056 13.448 94.4734 13.6422L94.3979 14.1464L94.4804 14.163C94.7948 14.2377 95.1811 16.2647 95.1811 16.5462V16.5519C95.1927 16.6167 95.1978 16.7906 95.1978 17.0076C95.1978 17.4961 95.1727 18.204 95.14 18.3762L94.8729 19.2083C94.714 19.6536 94.6386 19.8785 94.6386 19.9972L94.6486 20.0611L94.6721 20.1191L94.8671 20.1174C95.2409 20.112 95.4121 20.1091 96.2043 20.8771C96.3153 20.9871 96.7749 21.1324 96.8657 21.1602L96.9631 21.19L97.2733 19.5555L97.3474 19.2339C97.4746 18.9313 97.3757 18.7745 97.3281 18.6976L97.3156 18.6973C97.3845 18.365 97.406 18.13 97.406 17.9592C97.406 17.7836 97.3838 17.6745 97.3674 17.5928C97.3586 17.5482 97.3516 17.5172 97.3516 17.4902C97.3516 17.45 97.3645 17.4185 97.4013 17.3658L97.416 17.3429L97.4174 17.3105C97.4174 17.1645 97.2679 16.8438 97.2202 16.7661L97.2027 16.7391ZM94.81 8.37109C94.81 8.37109 94.7602 8.62235 94.7869 8.78294C94.6936 8.99878 94.5089 9.66209 94.3612 9.84774C94.288 9.94128 94.0407 10.1061 93.7941 10.1515C93.643 10.1797 93.4036 10.1515 93.4036 10.1515V5.89167C93.4607 5.88787 93.5134 5.88787 93.5816 5.89167C93.921 5.89167 94.787 7.10956 94.787 7.10956C95.0205 7.52306 94.9289 7.86971 94.9289 7.86971V8.17425C94.8827 8.19705 94.856 8.39461 94.81 8.37109Z" fill="#F1F1F1"/>
</svg>
