<svg width="25" height="25" viewBox="0 0 25 25" fill="none" xmlns="http://www.w3.org/2000/svg">
<path opacity="0.6" fill-rule="evenodd" clip-rule="evenodd" d="M19.6653 9.0297H17.8111L15.2128 16.16H17.0674L19.6653 9.03093V9.0297ZM12.6149 24.2445C12.5002 24.2445 12.3846 24.242 12.2698 24.2387L14.6509 17.6946H17.927C18.5029 17.6946 19.1347 17.2528 19.3309 16.7124L21.9139 9.61662C22.3376 8.45429 21.6729 7.50501 20.4332 7.50501H15.889L12.0749 17.9862L9.91052 23.927C4.78143 22.7087 0.964844 18.0956 0.964844 12.5932C0.964844 7.24877 4.56385 2.74421 9.47124 1.3717L7.23945 7.50501L3.52898 17.6946H5.99686L9.15165 9.03628H11.0091L7.85436 17.6946H10.3222L13.2631 9.61662C13.686 8.45429 13.0213 7.50501 11.7857 7.50501H9.70898L12.0917 0.955056C12.2661 0.946419 12.4405 0.941895 12.6149 0.941895C19.0516 0.941895 24.2675 6.15841 24.2675 12.5932C24.2675 19.028 19.0516 24.2445 12.6149 24.2445Z" fill="#F1F1F1"/>
</svg>
