<svg width="69" height="21" viewBox="0 0 69 21" fill="none" xmlns="http://www.w3.org/2000/svg">
<g opacity="0.6">
<path d="M61.4015 10.1115C60.975 9.37724 60.375 8.78859 59.6249 8.34542C59.0644 8.01892 58.4831 7.81169 57.8281 7.72269V5.38957C58.4831 5.1113 58.8896 4.49538 58.8896 3.77683C58.8896 2.79745 58.1046 2.00379 57.1266 2.00379C56.1478 2.00379 55.349 2.79745 55.349 3.77683C55.349 4.49538 55.7321 5.1113 56.3871 5.38957V7.72374C55.8631 7.7995 55.3197 7.96295 54.8235 8.21409C53.8099 7.4439 50.4864 4.91718 48.5423 3.44142C48.5884 3.27508 48.6239 3.10364 48.6239 2.92276C48.6239 1.83799 47.7459 0.95874 46.6613 0.95874C45.5768 0.95874 44.6992 1.83799 44.6992 2.92276C44.6992 4.00739 45.5777 4.8869 46.6623 4.8869C47.0322 4.8869 47.3744 4.77863 47.6697 4.60064L48.08 4.91207L53.7177 8.97642C53.4197 9.25023 53.1421 9.56166 52.92 9.91111C52.47 10.6235 52.1951 11.4073 52.1951 12.2623V12.4407C52.1951 13.0409 52.309 13.6075 52.5032 14.1398C52.6741 14.6046 52.9241 15.0272 53.2336 15.4093L51.3626 17.286C51.0914 17.185 50.7969 17.1643 50.5143 17.2263C50.2317 17.2883 49.9729 17.4304 49.7688 17.6357C49.6275 17.7764 49.5156 17.9437 49.4394 18.1279C49.3632 18.3122 49.3243 18.5098 49.325 18.7092C49.3251 19.1146 49.483 19.4956 49.7696 19.7823C49.9101 19.9238 50.0772 20.0359 50.2614 20.1123C50.4455 20.1887 50.6429 20.2277 50.8422 20.2272C51.0416 20.2277 51.2391 20.1886 51.4233 20.1123C51.6075 20.0359 51.7747 19.9237 51.9153 19.7823C52.0564 19.6416 52.1684 19.4744 52.2446 19.2902C52.3208 19.106 52.3598 18.9085 52.3593 18.7092C52.3593 18.5523 52.3351 18.3992 52.2895 18.2537L54.2235 16.3184C54.4886 16.5016 54.775 16.6559 55.0828 16.789C55.69 17.0516 56.3602 17.2117 57.0937 17.2117H57.2281C58.039 17.2117 58.8039 17.0211 59.523 16.6313C60.2807 16.2193 60.8737 15.656 61.3218 14.9368C61.7721 14.2156 62.0201 13.4188 62.0201 12.5422V12.4984C62.0201 11.636 61.8206 10.8404 61.4015 10.1115ZM59.0385 14.1713C58.5136 14.755 57.9102 15.1145 57.2281 15.1145H57.1157C56.7261 15.1145 56.345 15.0067 55.9719 14.8108C55.5514 14.595 55.2318 14.2873 54.9702 13.8976C54.6998 13.5151 54.5531 13.0975 54.5531 12.6547V12.5203C54.5531 12.085 54.6365 11.6722 54.8469 11.2824C55.0718 10.8563 55.3756 10.5249 55.7796 10.2615C56.1763 9.99984 56.6 9.87152 57.0718 9.87152H57.1157C57.5436 9.87152 57.9486 9.95593 58.3309 10.1516C58.7203 10.3603 59.0385 10.6454 59.2852 11.0204C59.5248 11.3955 59.6673 11.8001 59.7132 12.2409C59.7204 12.3326 59.7241 12.4264 59.7241 12.5161C59.7241 13.1143 59.4956 13.6683 59.0385 14.1713Z" fill="#F1F1F1"/>
<path d="M0.976562 4.5769H3.31519V9.77556H8.2475V4.5769H10.5891V17.338H8.2475V12.0302H3.31519V17.338H0.976562V4.5769ZM17.9979 13.1815C17.9979 14.2498 17.128 15.1191 16.0607 15.1191C14.9929 15.1191 14.1235 14.2498 14.1235 13.1815V7.68742H11.9057V13.1815C11.9057 15.4736 13.7697 17.338 16.0607 17.338C18.3511 17.338 20.215 15.4736 20.215 13.1815V7.68742H17.9979V13.1815ZM26.4063 7.75178C25.3062 7.75178 24.5382 8.07121 23.7966 8.79958V4.5769H21.5716V12.4027C21.5716 15.3319 23.6883 17.338 26.0664 17.338C28.7101 17.338 31.0264 15.2961 31.0264 12.545C31.0264 9.82878 28.8905 7.75178 26.4063 7.75178ZM26.4616 15.2784C24.9539 15.2784 23.801 14.0186 23.801 12.545C23.801 11.0712 24.9539 9.81095 26.4616 9.81095C27.7391 9.81095 28.8927 11.0712 28.8927 12.545C28.8927 14.0186 27.7391 15.2784 26.4616 15.2784ZM34.7635 8.31264C34.7635 7.19353 35.5088 6.83872 36.3246 6.83872C36.9815 6.83872 37.8507 7.33575 38.4179 7.93948L39.8724 6.23538C39.1455 5.25914 37.6732 4.58438 36.4667 4.58438C34.0535 4.58438 32.3147 5.98687 32.3147 8.31264C32.3147 12.6263 37.6199 11.2589 37.6199 13.6738C37.6199 14.4186 36.8927 15.0761 36.0592 15.0761C34.7458 15.0761 34.3198 14.4369 33.7168 13.7622L32.102 15.4306C33.1316 16.6912 34.4086 17.3305 35.9347 17.3305C38.2232 17.3305 40.0685 15.9103 40.0685 13.691C40.0685 8.89815 34.7635 10.3895 34.7635 8.31264ZM45.9261 7.62673C43.5483 7.62673 41.4313 9.63164 41.4313 12.5615V20.4075H43.6562V16.1648C44.398 16.8926 45.1655 17.2126 46.266 17.2126C48.7501 17.2126 50.8863 15.1358 50.8863 12.4196C50.8863 9.66808 48.5693 7.62673 45.9261 7.62673ZM46.3214 15.1537C44.8139 15.1537 43.6608 13.8921 43.6608 12.4196C43.6608 10.9458 44.8139 9.68551 46.3214 9.68551C47.5987 9.68551 48.7524 10.9458 48.7524 12.4196C48.7524 13.8921 47.5987 15.1537 46.3214 15.1537ZM67.2642 15.2784C65.9518 15.2784 65.5792 14.7106 65.5792 13.8404V9.98842H67.6192V8.03595H65.5792V5.46165L63.3267 6.47328V14.3198C63.3267 16.326 64.71 17.338 66.6076 17.338C66.8915 17.338 67.2822 17.3197 67.4954 17.2671L68.0454 15.2436C67.7971 15.2607 67.5133 15.2784 67.2642 15.2784Z" fill="#F1F1F1"/>
</g>
</svg>
