<svg width="96" height="13" viewBox="0 0 96 13" fill="none" xmlns="http://www.w3.org/2000/svg">
<g opacity="0.6">
<path d="M3.88994 6.36622C3.8552 6.32077 3.80933 6.28504 3.75675 6.2625C3.70417 6.23996 3.64666 6.23136 3.58979 6.23754C3.53292 6.24372 3.4786 6.26447 3.43209 6.29777C3.38558 6.33108 3.34845 6.37583 3.32428 6.42768L0.458036 12.1584C0.431925 12.2106 0.419596 12.2686 0.422221 12.327C0.424846 12.3853 0.442338 12.442 0.473035 12.4917C0.503731 12.5413 0.546615 12.5823 0.597613 12.6108C0.648612 12.6392 0.706032 12.6542 0.764424 12.6542H4.75553C4.81945 12.6556 4.88243 12.6385 4.93682 12.6049C4.9912 12.5713 5.03466 12.5226 5.06191 12.4648C5.92285 10.6858 5.40109 7.98076 3.88994 6.36622Z" fill="#F1F1F1"/>
<path d="M5.98266 1.1426C5.26847 2.2416 4.85227 3.50743 4.7749 4.81586C4.69754 6.12428 4.96166 7.43035 5.54135 8.60587L7.46551 12.4545C7.49395 12.5114 7.53769 12.5593 7.5918 12.5927C7.64592 12.6262 7.70828 12.6439 7.77189 12.6439H11.7623C11.8207 12.6439 11.8781 12.629 11.9291 12.6005C11.9801 12.5721 12.023 12.5311 12.0537 12.4814C12.0844 12.4318 12.1019 12.3751 12.1045 12.3167C12.1071 12.2584 12.0948 12.2003 12.0687 12.1481C12.0687 12.1481 6.70025 1.40905 6.56533 1.14045C6.53866 1.08577 6.49711 1.03972 6.44546 1.00759C6.39381 0.975446 6.33415 0.958518 6.27332 0.958742C6.21249 0.958967 6.15296 0.976335 6.10155 1.00885C6.05013 1.04137 6.00893 1.08773 5.98266 1.1426Z" fill="#F1F1F1"/>
<path d="M52.7978 5.74173C52.7978 7.16078 53.4561 8.28743 56.031 8.78482C57.5672 9.10733 57.889 9.35531 57.889 9.86739C57.889 10.3648 57.5665 10.6868 56.4845 10.6868C55.1767 10.6632 53.8951 10.3164 52.7539 9.67728V11.9886C53.5294 12.369 54.5534 12.7933 56.4553 12.7933C59.1472 12.7933 60.2153 11.5928 60.2153 9.8088L52.7978 5.74173ZM60.2153 9.8088C60.2153 8.12635 59.3228 7.3362 56.8065 6.79509C55.4166 6.48781 55.0801 6.1807 55.0801 5.74173C55.0801 5.18629 55.5775 4.95175 56.4992 4.95175C57.6111 4.95175 58.7084 5.28824 59.7471 5.75642V3.5472C58.7511 3.09388 57.6664 2.86897 56.5723 2.88891C54.0852 2.88891 52.7978 3.97149 52.7978 5.74173" fill="#F1F1F1"/>
<path d="M87.3789 3.01538V12.6274H89.427V5.29752L90.2903 7.24317L93.187 12.6272H95.7619V3.01538H93.7138V9.21857L92.9383 7.41894L90.6121 3.01538H87.3789Z" fill="#F1F1F1"/>
<path d="M74.3556 3.01538H72.1172V12.6274H74.3556V3.01538Z" fill="#F1F1F1"/>
<path d="M69.5317 9.8088C69.5317 8.12635 68.6392 7.3362 66.1229 6.79509C64.733 6.48781 64.3965 6.1807 64.3965 5.74173C64.3965 5.18629 64.8939 4.95175 65.8156 4.95175C66.9275 4.95175 68.0248 5.28824 69.0635 5.75642V3.5472C68.0675 3.09388 66.9828 2.86897 65.8887 2.88891C63.4016 2.88891 62.1142 3.97149 62.1142 5.74173C62.1142 7.16078 62.7725 8.28743 65.3474 8.78482C66.8836 9.10733 67.2054 9.35531 67.2054 9.86739C67.2054 10.3648 66.8829 10.6868 65.8009 10.6868C64.4931 10.6632 63.2115 10.3164 62.0703 9.67728V11.9886C62.8458 12.369 63.8698 12.7933 65.7717 12.7933C68.4636 12.7933 69.5317 11.5928 69.5317 9.8088Z" fill="#F1F1F1"/>
<path d="M35.4062 3.01538V12.6274H40.0071L40.7315 10.5489H37.6592V3.01538H35.4062Z" fill="#F1F1F1"/>
<path d="M26.3242 3.01538V5.09273H28.8113V12.6274H31.0643V5.09273H33.727V3.01538H26.3242Z" fill="#F1F1F1"/>
<path d="M23.0466 3.01538H20.094L16.7422 12.6274H19.3019L19.777 11.0085C20.9473 11.3521 22.1917 11.3521 23.362 11.0085L23.8371 12.6274H26.3972L23.0466 3.01538ZM21.5702 9.27519C21.1533 9.27515 20.7386 9.21547 20.3386 9.09798L21.5702 4.90334L22.802 9.09942C22.4019 9.21644 21.9871 9.27563 21.5702 9.27519Z" fill="#F1F1F1"/>
<path d="M47.9371 3.01538H44.9846L41.6328 12.6274H44.193L44.6682 11.0085C45.8385 11.3521 47.0828 11.3521 48.2531 11.0085L48.7283 12.6274H51.2885L47.9371 3.01538ZM46.4608 9.27519C46.0439 9.27515 45.6292 9.21547 45.2292 9.09798L46.4608 4.90334L47.6927 9.09942C47.2925 9.21644 46.8777 9.27563 46.4608 9.27519Z" fill="#F1F1F1"/>
<path d="M82.4292 3.01538H79.4768L76.125 12.6274H78.6852L79.1604 11.0085C80.3307 11.3521 81.575 11.3521 82.7453 11.0085L83.2205 12.6274H85.7809L82.4292 3.01538ZM80.9521 9.27519C80.5352 9.27515 80.1205 9.21547 79.7205 9.09798L80.9521 4.90334L82.1839 9.09942C81.7838 9.21644 81.369 9.27563 80.9521 9.27519Z" fill="#F1F1F1"/>
</g>
</svg>
