<svg width="67" height="21" viewBox="0 0 67 21" fill="none" xmlns="http://www.w3.org/2000/svg">
<g opacity="0.6">
<path d="M10.4105 0.958984C8.45036 0.958984 6.53422 1.54026 4.90441 2.62929C3.27461 3.71833 2.00435 5.26621 1.25428 7.07719C0.504216 8.88817 0.308023 10.8809 0.690519 12.8034C1.07301 14.7259 2.01702 16.4918 3.40315 17.8777C4.78928 19.2637 6.55528 20.2075 8.47781 20.5898C10.4003 20.972 12.3931 20.7756 14.2039 20.0253C16.0148 19.275 17.5626 18.0046 18.6514 16.3746C19.7402 14.7447 20.3213 12.8285 20.3211 10.8683C20.3211 9.56691 20.0647 8.27825 19.5666 7.07591C19.0686 5.87358 18.3385 4.78113 17.4183 3.86094C16.498 2.94076 15.4054 2.21087 14.203 1.71295C13.0006 1.21503 11.7119 0.958829 10.4105 0.958984ZM14.9558 15.2526C14.9134 15.3219 14.8579 15.3821 14.7923 15.4299C14.7267 15.4777 14.6523 15.512 14.5734 15.5311C14.4945 15.5501 14.4126 15.5533 14.3324 15.5407C14.2522 15.528 14.1753 15.4997 14.1061 15.4573C11.7797 14.0373 8.8497 13.7143 5.40024 14.5024C5.24346 14.5315 5.08151 14.4988 4.94827 14.4112C4.81504 14.3236 4.72083 14.1879 4.68537 14.0324C4.6499 13.877 4.67593 13.7138 4.758 13.5771C4.84007 13.4404 4.97183 13.3407 5.1257 13.2989C8.90058 12.4351 12.1382 12.8066 14.751 14.403C14.8907 14.4887 14.9906 14.6262 15.029 14.7855C15.0674 14.9448 15.041 15.1127 14.9558 15.2526ZM16.1687 12.5558C16.1156 12.6426 16.0459 12.718 15.9636 12.7778C15.8813 12.8376 15.788 12.8805 15.689 12.9042C15.5901 12.9278 15.4874 12.9317 15.387 12.9156C15.2865 12.8994 15.1903 12.8636 15.1037 12.8102C12.4423 11.1713 8.38109 10.6967 5.23457 11.6541C5.03842 11.7137 4.82661 11.693 4.64575 11.5964C4.46488 11.4999 4.32978 11.3355 4.27015 11.1393C4.21052 10.9432 4.23125 10.7314 4.32778 10.5505C4.42432 10.3696 4.58875 10.2345 4.7849 10.1749C8.38109 9.08266 12.8553 9.61161 15.9143 11.4908C16.0011 11.5438 16.0765 11.6135 16.1363 11.6959C16.1961 11.7782 16.239 11.8715 16.2627 11.9704C16.2863 12.0694 16.2902 12.172 16.2741 12.2725C16.2579 12.3729 16.2221 12.4692 16.1687 12.5558ZM16.2728 9.74651C13.0778 7.85316 7.80953 7.67566 4.76005 8.60103C4.52467 8.67243 4.27056 8.6474 4.05364 8.53145C3.83671 8.4155 3.67473 8.21812 3.60333 7.98274C3.53193 7.74735 3.55696 7.49325 3.67291 7.27632C3.78887 7.05939 3.98625 6.89741 4.22163 6.82601C7.72197 5.761 13.5417 5.96809 17.2195 8.15136C17.3242 8.21352 17.4156 8.29569 17.4885 8.39317C17.5614 8.49065 17.6144 8.60153 17.6444 8.71949C17.6745 8.83745 17.681 8.96018 17.6636 9.08066C17.6462 9.20114 17.6053 9.31702 17.5431 9.42168C17.481 9.52635 17.3988 9.61774 17.3013 9.69065C17.2039 9.76355 17.093 9.81655 16.975 9.8466C16.7368 9.90729 16.4842 9.87087 16.2728 9.74533V9.74651Z" fill="#F1F1F1"/>
<path d="M27.4618 10.1065C25.7506 9.69827 25.4501 9.4119 25.4501 8.80484C25.4501 8.23565 25.9861 7.85816 26.7813 7.85816C27.5529 7.85816 28.3197 8.14927 29.1208 8.74686C29.1328 8.75564 29.1464 8.76195 29.1608 8.76541C29.1752 8.76886 29.1902 8.76939 29.2048 8.76697C29.2197 8.76501 29.234 8.76 29.2468 8.75227C29.2596 8.74453 29.2707 8.73423 29.2794 8.72201L30.1148 7.53866C30.1301 7.51487 30.1363 7.48639 30.1324 7.45839C30.1285 7.43039 30.1147 7.40471 30.0935 7.38601C29.1674 6.62967 28.003 6.2263 26.8074 6.24763C24.959 6.24763 23.6691 7.35643 23.6691 8.94211C23.6691 10.6438 24.7827 11.2461 26.7056 11.7111C28.3434 12.0874 28.6191 12.4034 28.6191 12.969C28.6191 13.5938 28.0605 13.9832 27.1612 13.9832C26.1625 13.9832 25.3483 13.6471 24.4395 12.8578C24.4161 12.839 24.3867 12.8294 24.3567 12.8306C24.3269 12.8338 24.2994 12.8481 24.2798 12.8708L23.339 13.9926C23.3202 14.0148 23.3108 14.0433 23.3128 14.0723C23.3148 14.1013 23.328 14.1283 23.3496 14.1476C24.3821 15.0838 25.7273 15.6 27.121 15.5949C29.1125 15.5949 30.3988 14.5062 30.3988 12.8235C30.3965 11.3999 29.5456 10.613 27.4618 10.1065Z" fill="#F1F1F1"/>
<path d="M34.9013 8.41992C34.0386 8.41992 33.3298 8.75954 32.7464 9.45653V8.67197C32.7464 8.64178 32.7349 8.61271 32.7143 8.59071C32.6936 8.56871 32.6653 8.55545 32.6351 8.55364H31.1027C31.0713 8.55364 31.0412 8.56611 31.019 8.5883C30.9968 8.61049 30.9844 8.64059 30.9844 8.67197V17.3814C30.9859 17.4118 30.999 17.4404 31.0211 17.4613C31.0431 17.4822 31.0723 17.4939 31.1027 17.4938H32.6351C32.6498 17.4938 32.6644 17.4909 32.678 17.4852C32.6916 17.4796 32.7039 17.4713 32.7142 17.4608C32.7246 17.4504 32.7327 17.438 32.7383 17.4243C32.7438 17.4107 32.7465 17.3961 32.7464 17.3814V14.6325C33.0105 14.945 33.341 15.1946 33.7137 15.3633C34.0865 15.532 34.4922 15.6154 34.9013 15.6076C36.5047 15.6076 38.1271 14.3733 38.1271 12.0137C38.1271 9.65415 36.5047 8.41992 34.9013 8.41992ZM36.3461 12.0137C36.3461 13.216 35.6065 14.0538 34.5462 14.0538C33.486 14.0538 32.7085 13.177 32.7085 12.0137C32.7085 10.8505 33.499 9.97484 34.5462 9.97484C35.5935 9.97484 36.3461 10.8316 36.3461 12.0137Z" fill="#F1F1F1"/>
<path d="M42.2841 8.41992C40.2192 8.41992 38.6016 10.0103 38.6016 12.0398C38.6016 14.0515 40.2085 15.6218 42.2593 15.6218C44.3313 15.6218 45.9537 14.0361 45.9537 12.0137C45.9537 9.99141 44.342 8.41992 42.2841 8.41992ZM42.2841 14.0668C41.186 14.0668 40.3576 13.1841 40.3576 12.0137C40.3576 10.8434 41.1576 9.98667 42.2593 9.98667C43.361 9.98667 44.1976 10.8694 44.1976 12.0398C44.1976 13.2101 43.3929 14.0668 42.2841 14.0668Z" fill="#F1F1F1"/>
<path d="M50.3678 8.55906H48.6815V6.83611C48.6825 6.82091 48.6803 6.80568 48.6751 6.79136C48.67 6.77703 48.662 6.76392 48.6515 6.75282C48.6411 6.74173 48.6285 6.7329 48.6145 6.72687C48.6005 6.72084 48.5855 6.71774 48.5703 6.71777H47.0378C47.0075 6.71929 46.9789 6.73243 46.9579 6.75446C46.937 6.77649 46.9254 6.80572 46.9254 6.83611V8.55906H46.1894C46.1592 8.56087 46.1309 8.57413 46.1102 8.59613C46.0896 8.61813 46.0781 8.6472 46.0781 8.6774V9.98854C46.0781 10.0187 46.0896 10.0478 46.1102 10.0698C46.1309 10.0918 46.1592 10.1051 46.1894 10.1069H46.9254V13.5137C46.9254 14.89 47.6117 15.5881 48.9631 15.5881C49.4647 15.6001 49.9603 15.4775 50.3985 15.2331C50.4152 15.2227 50.4291 15.2082 50.4388 15.1911C50.4485 15.1739 50.4538 15.1546 50.4541 15.1349V13.8747C50.4541 13.8556 50.4492 13.8368 50.4399 13.8201C50.4306 13.8035 50.4172 13.7894 50.401 13.7794C50.3848 13.7693 50.3663 13.7635 50.3472 13.7626C50.3281 13.7617 50.3091 13.7656 50.292 13.7741C50.0142 13.9179 49.7056 13.9922 49.3927 13.9906C48.9016 13.9906 48.6827 13.7681 48.6827 13.2676V10.101H50.3689C50.3993 10.0994 50.4279 10.0863 50.4488 10.0643C50.4697 10.0422 50.4814 10.013 50.4814 9.98263V8.67148C50.4799 8.64193 50.4674 8.614 50.4464 8.59319C50.4254 8.57239 50.3973 8.56021 50.3678 8.55906Z" fill="#F1F1F1"/>
<path d="M56.2324 8.56751V8.35569C56.2324 7.73325 56.4691 7.45517 57.0063 7.45517C57.3012 7.45882 57.5934 7.51285 57.8701 7.61492C57.887 7.62 57.9048 7.62125 57.9222 7.61859C57.9396 7.61593 57.9562 7.60942 57.9707 7.59954C57.9847 7.58876 57.9962 7.57498 58.0041 7.55921C58.0121 7.54344 58.0165 7.52609 58.0169 7.50842V6.21739C58.0161 6.19354 58.0081 6.17049 57.9939 6.15127C57.9798 6.13205 57.9601 6.11756 57.9376 6.1097C57.5262 5.98462 57.0979 5.92394 56.6679 5.92983C55.2478 5.92983 54.5047 6.72623 54.5047 8.23381V8.55805H53.7687C53.7393 8.55948 53.7115 8.57178 53.6908 8.59256C53.67 8.61334 53.6577 8.64111 53.6563 8.67046V9.98989C53.6562 10.0203 53.6679 10.0495 53.6888 10.0715C53.7097 10.0936 53.7383 10.1067 53.7687 10.1082H54.5047V15.3635C54.5047 15.3949 54.5172 15.425 54.5394 15.4471C54.5616 15.4693 54.5917 15.4818 54.623 15.4818H56.1543C56.1846 15.4803 56.2132 15.4671 56.2342 15.4451C56.2551 15.4231 56.2667 15.3939 56.2667 15.3635V10.1023H57.6974L59.8889 15.3564C59.6404 15.9078 59.3955 16.0179 59.0606 16.0179C58.7635 16.0116 58.4728 15.9302 58.2157 15.7812C58.1878 15.7672 58.1557 15.7643 58.1257 15.7729C58.0966 15.7836 58.0728 15.8052 58.0595 15.8333L57.5341 16.9693C57.5218 16.995 57.5199 17.0244 57.5287 17.0515C57.5375 17.0786 57.5564 17.1012 57.5814 17.1148C58.0801 17.3972 58.6449 17.5418 59.218 17.5337C60.3493 17.5337 60.9741 17.006 61.5255 15.5883L64.1833 8.7249C64.1902 8.70795 64.1928 8.68952 64.1907 8.67131C64.1887 8.65311 64.182 8.63572 64.1715 8.62076C64.1612 8.60575 64.1474 8.59348 64.1314 8.58502C64.1153 8.57656 64.0973 8.57218 64.0792 8.57225H62.4876C62.4643 8.57302 62.4418 8.58061 62.4229 8.59408C62.404 8.60755 62.3894 8.62629 62.3811 8.64798L60.7469 13.3139L58.9541 8.6397C58.9461 8.6185 58.9319 8.60023 58.9133 8.58733C58.8947 8.57443 58.8726 8.56752 58.85 8.56751H56.2324Z" fill="#F1F1F1"/>
<path d="M52.8351 8.55957H51.3038C51.2417 8.55957 51.1914 8.6099 51.1914 8.67199V15.3555C51.1914 15.4176 51.2417 15.4679 51.3038 15.4679H52.8351C52.8972 15.4679 52.9475 15.4176 52.9475 15.3555V8.67199C52.9475 8.6099 52.8972 8.55957 52.8351 8.55957Z" fill="#F1F1F1"/>
<path d="M52.0734 5.51587C51.8558 5.51564 51.6431 5.57992 51.4622 5.7006C51.2812 5.82127 51.1401 5.99291 51.0567 6.1938C50.9733 6.39469 50.9513 6.61581 50.9936 6.82917C51.0359 7.04254 51.1406 7.23856 51.2943 7.39245C51.448 7.54634 51.6439 7.65118 51.8572 7.6937C52.0706 7.73622 52.2917 7.71452 52.4927 7.63133C52.6937 7.54815 52.8654 7.40722 52.9863 7.22638C53.1072 7.04554 53.1717 6.83291 53.1717 6.61539C53.1714 6.32408 53.0556 6.04477 52.8497 5.83868C52.6439 5.63258 52.3647 5.5165 52.0734 5.51587Z" fill="#F1F1F1"/>
<path d="M65.5013 10.7089C65.2875 10.7085 65.0787 10.6447 64.9012 10.5256C64.7236 10.4066 64.5854 10.2376 64.5038 10.0401C64.4222 9.84249 64.401 9.62518 64.4428 9.41556C64.4846 9.20593 64.5876 9.0134 64.7387 8.86225C64.8899 8.71111 65.0824 8.60813 65.292 8.56631C65.5016 8.5245 65.719 8.54572 65.9165 8.6273C66.1141 8.70889 66.2831 8.84717 66.4021 9.0247C66.5212 9.20224 66.5849 9.41106 66.5854 9.62481C66.5854 9.91234 66.4712 10.1881 66.2679 10.3914C66.0646 10.5947 65.7888 10.7089 65.5013 10.7089ZM65.5013 8.6543C65.3081 8.65265 65.1189 8.70847 64.9575 8.81466C64.7962 8.92085 64.67 9.0726 64.5951 9.25065C64.5202 9.42869 64.5 9.62498 64.5369 9.81457C64.5738 10.0042 64.6663 10.1785 64.8025 10.3154C64.9388 10.4523 65.1127 10.5456 65.3021 10.5835C65.4915 10.6214 65.6879 10.602 65.8663 10.528C66.0447 10.454 66.1971 10.3286 66.304 10.1678C66.411 10.007 66.4678 9.81796 66.4671 9.62481C66.4685 9.4976 66.4447 9.37137 66.397 9.2534C66.3494 9.13544 66.2789 9.02808 66.1895 8.93752C66.1002 8.84696 65.9938 8.77499 65.8764 8.72577C65.7591 8.67655 65.6332 8.65105 65.506 8.65074L65.5013 8.6543ZM65.738 9.73606L66.0433 10.1633H65.7865L65.5119 9.77157H65.2752V10.1633H65.061V9.03067H65.5652C65.8279 9.03067 66.0007 9.16559 66.0007 9.39165C66.0047 9.4698 65.9813 9.54689 65.9347 9.60972C65.8881 9.67256 65.821 9.71722 65.7451 9.73606H65.738ZM65.5569 9.22477H65.2752V9.57984H65.5569C65.6966 9.57984 65.7806 9.51119 65.7806 9.39994C65.7806 9.28868 65.706 9.22477 65.564 9.22477H65.5569Z" fill="#F1F1F1"/>
</g>
</svg>
