<svg width="60" height="18" viewBox="0 0 60 18" fill="none" xmlns="http://www.w3.org/2000/svg">
<path opacity="0.6" fill-rule="evenodd" clip-rule="evenodd" d="M7.2213 0.974811C6.55786 0.99728 5.90227 1.12565 5.27931 1.35508C2.85095 2.36893 1.16272 4.58117 0.398496 7.23599C0.265724 7.73225 0.168941 8.23745 0.108901 8.74765C0.108901 8.76411 0.0683695 9.27133 0.141209 9.13439C0.213461 9.0139 0.245768 8.83699 0.285712 8.69946C0.655195 7.45287 1.10809 6.31853 1.79771 5.24062C3.45363 2.80327 6.1152 1.234 8.92891 2.10327C9.44386 2.28636 9.93309 2.53506 10.3845 2.84323C10.4726 2.90788 11.1241 3.42274 10.9796 2.95608C10.8591 2.58639 10.5531 2.27195 10.2876 2.02275C9.39355 1.24811 8.3133 0.943661 7.2213 0.974811ZM27.759 3.41216C27.3813 3.41216 27.0917 3.54147 26.8902 3.80712C26.6811 4.06397 26.5854 4.45364 26.5854 4.95733V8.62599C26.1184 8.11113 25.6367 7.74086 25.1462 7.49107C24.8086 7.32957 24.4476 7.22245 24.0765 7.17369C23.8314 7.1408 23.5843 7.12469 23.337 7.12549C22.1069 7.12549 21.1048 7.55925 20.3459 8.42792C19.5869 9.2966 19.2122 10.5038 19.2122 12.0566C19.2077 12.7478 19.3027 13.4361 19.4941 14.1002C19.6702 14.6952 19.9564 15.2518 20.3376 15.7412C20.6937 16.1922 21.1438 16.5602 21.6564 16.8197C22.1691 17.0717 22.7334 17.2011 23.3047 17.1976C23.5637 17.198 23.8222 17.1736 24.0765 17.1247C24.2347 17.0995 24.3906 17.062 24.5429 17.0124C24.9195 16.884 25.2746 16.6996 25.5962 16.4652C25.9573 16.1893 26.2888 15.8765 26.5854 15.5319V15.7729C26.5854 16.2319 26.6982 16.5781 26.9149 16.8273C27.0218 16.9427 27.1512 17.0351 27.295 17.0988C27.4389 17.1624 27.5942 17.196 27.7515 17.1975C27.9088 17.199 28.0647 17.1683 28.2097 17.1074C28.3548 17.0465 28.4858 16.9566 28.5949 16.8432C28.8123 16.6016 28.9162 16.2484 28.9162 15.7729V4.82979C28.9162 4.37135 28.8199 4.01753 28.619 3.77597C28.4181 3.53441 28.1209 3.41216 27.759 3.41216ZM58.1018 3.41216C57.7241 3.41216 57.4346 3.54147 57.2342 3.80712C57.0328 4.06397 56.9282 4.45364 56.9282 4.95733V8.62599C56.5218 8.16312 56.0343 7.77849 55.4896 7.49107C55.1524 7.32843 54.7912 7.22126 54.4199 7.17369C54.1748 7.14078 53.9277 7.12467 53.6804 7.12549C52.4503 7.12549 51.4533 7.55964 50.6893 8.42792C49.9333 9.29719 49.5556 10.5038 49.5556 12.0566C49.5496 12.7484 49.647 13.4372 49.8446 14.1002C50.0183 14.6948 50.302 15.2514 50.6811 15.7412C51.037 16.1923 51.4871 16.5604 51.9998 16.8197C52.5125 17.0717 53.0768 17.2011 53.6481 17.1976C53.9071 17.1987 54.1657 17.1743 54.4199 17.1247C54.5779 17.0997 54.7337 17.0621 54.8858 17.0124C55.2624 16.8842 55.6175 16.6997 55.939 16.4652C56.302 16.1914 56.6337 15.8784 56.9282 15.5319V15.7729C56.9282 16.2319 57.041 16.5781 57.2577 16.8273C57.3655 16.9428 57.4956 17.0352 57.6402 17.0989C57.7848 17.1626 57.9408 17.1962 58.0987 17.1976C58.2567 17.1991 58.4133 17.1685 58.559 17.1075C58.7048 17.0466 58.8366 16.9567 58.9465 16.8432C59.1639 16.6016 59.2761 16.2484 59.2761 15.7729V4.82979C59.2761 4.37135 59.1715 4.01753 58.9706 3.77597C58.7697 3.53441 58.4801 3.41216 58.1018 3.41216ZM6.58572 4.08219C6.13892 4.06961 5.70035 4.20416 5.33739 4.46517C4.97443 4.72617 4.70716 5.09919 4.57663 5.52693C4.4461 5.95466 4.45954 6.41343 4.61488 6.83278C4.77022 7.25213 5.05887 7.60885 5.43648 7.84814C5.8141 8.08742 6.25979 8.19605 6.70509 8.15731C7.15038 8.11858 7.57065 7.93464 7.90133 7.63374C8.23201 7.33284 8.45481 6.93164 8.5355 6.49176C8.61618 6.05188 8.5503 5.59767 8.34796 5.19889C8.18233 4.87143 7.93125 4.59491 7.62132 4.39862C7.31138 4.20234 6.95415 4.09361 6.58748 4.08395L6.58572 4.08219ZM34.5994 7.08906C33.9298 7.09034 33.2657 7.20972 32.6375 7.4417C32.0541 7.66832 31.5279 8.02115 31.0967 8.47494C30.668 8.94081 30.3419 9.49169 30.1398 10.0918C29.9165 10.7498 29.8051 11.4405 29.8103 12.1354C29.8103 13.6958 30.2608 14.9183 31.1449 15.827C31.9808 16.688 33.1309 17.1382 34.6024 17.1864C34.6905 17.1946 34.771 17.1952 34.8597 17.1952C35.5593 17.1952 36.1702 17.1065 36.7089 16.9213C37.2475 16.7362 37.6898 16.5099 38.0429 16.2372C38.3609 16.0007 38.6312 15.7059 38.8394 15.3685C39.0156 15.0711 39.1043 14.8061 39.1043 14.5886C39.1043 14.3394 39.0244 14.1378 38.8694 14.0009C38.695 13.8586 38.4751 13.7843 38.2502 13.7916C38.0094 13.7916 37.8326 13.8504 37.7033 13.9527C37.3985 14.2424 37.1406 14.4758 36.9479 14.645C36.7454 14.8152 36.5331 14.9736 36.3123 15.1193C36.0916 15.2624 35.8503 15.371 35.5969 15.4414C35.3327 15.5153 35.0593 15.5505 34.7851 15.546C34.7233 15.5473 34.6615 15.5445 34.6 15.5378C34.2357 15.5168 33.8822 15.4062 33.5709 15.2157C33.1949 14.9855 32.8913 14.6538 32.6951 14.2589C32.4695 13.8245 32.3567 13.3255 32.3485 12.7625H37.2058C37.852 12.7625 38.3554 12.6661 38.7172 12.4892C39.0697 12.2964 39.2459 11.8932 39.2459 11.2743C39.242 10.5804 39.0658 9.8984 38.7331 9.28955C38.3871 8.64304 37.8649 8.11407 37.1735 7.70265C36.4821 7.29124 35.6462 7.09141 34.6811 7.09141L34.5994 7.08906ZM44.5267 7.08906C43.857 7.08959 43.1928 7.20899 42.5648 7.4417C41.9791 7.66908 41.4496 8.02079 41.0128 8.47259C40.5895 8.94091 40.2668 9.49123 40.0647 10.0895C39.8413 10.7474 39.7297 11.4382 39.7346 12.133C39.7346 13.6935 40.1769 14.916 41.061 15.8246C41.8969 16.6856 43.0553 17.1359 44.5267 17.1841C44.6078 17.1923 44.6947 17.1929 44.7834 17.1929C45.4754 17.1929 46.0945 17.1041 46.6326 16.919C47.1707 16.7338 47.6136 16.5076 47.9678 16.2349C48.2834 15.9959 48.5531 15.7015 48.7637 15.3662C48.94 15.0688 49.0293 14.8037 49.0293 14.5862C49.0293 14.337 48.9482 14.1355 48.7872 13.9985C48.6263 13.8616 48.426 13.7893 48.1687 13.7893C47.9337 13.7893 47.7575 13.848 47.63 13.9503C47.3158 14.2401 47.0673 14.4734 46.8746 14.6427C46.6685 14.8131 46.4528 14.9714 46.2285 15.117C46.0113 15.2597 45.7736 15.3683 45.5236 15.4391C45.2593 15.5124 44.986 15.5477 44.7118 15.5437C44.65 15.5449 44.5882 15.5422 44.5267 15.5354C44.1624 15.5147 43.8088 15.404 43.4976 15.2134C43.1275 14.9965 42.8379 14.675 42.6129 14.2565C42.3881 13.7899 42.2725 13.2782 42.2752 12.7601H47.1272C47.7787 12.7601 48.285 12.6638 48.6392 12.4868C49.0011 12.2941 49.1773 11.8909 49.1773 11.272C49.1773 10.5961 49.0011 9.93665 48.6551 9.28485C48.3091 8.63304 47.7945 8.10937 47.0949 7.69795C46.3953 7.28654 45.5759 7.0867 44.6025 7.0867L44.5267 7.08906ZM10.7581 7.10551C10.3963 7.10551 10.112 7.22306 9.914 7.45815C9.71604 7.69325 9.60032 8.03825 9.60032 8.51256V15.683C9.60032 16.1649 9.7131 16.5434 9.94572 16.7997C10.0541 16.9277 10.1899 17.0296 10.3431 17.0979C10.4962 17.1661 10.6628 17.199 10.8304 17.194C10.9987 17.1991 11.1662 17.1679 11.3216 17.1028C11.4769 17.0376 11.6165 16.9398 11.7309 16.8161C11.9658 16.5581 12.0833 16.1878 12.0833 15.6812V12.5838C12.0833 11.5623 12.1421 10.8794 12.2595 10.5085C12.4112 10.071 12.6918 9.68961 13.0643 9.41474C13.4142 9.15845 13.8366 9.02032 14.2703 9.02036C14.9452 9.02036 15.4034 9.23783 15.6289 9.67158C15.8545 10.1053 15.9667 10.7336 15.9667 11.5523V15.6789C15.9667 16.1608 16.0789 16.5393 16.3121 16.7956C16.4232 16.9244 16.5618 17.0267 16.7176 17.0949C16.8735 17.1632 17.0426 17.1956 17.2126 17.1899C17.3794 17.1952 17.5453 17.1633 17.6983 17.0964C17.8512 17.0295 17.9873 16.9293 18.0967 16.8032C18.3222 16.554 18.4427 16.1755 18.4427 15.6771V11.0727C18.4483 10.6238 18.4242 10.1749 18.3704 9.72918C18.3279 9.3828 18.2213 9.04737 18.0561 8.74001C17.8101 8.22612 17.4074 7.80362 16.906 7.53339C16.3674 7.24463 15.7641 7.09798 15.1531 7.10728C14.4776 7.10728 13.8832 7.24363 13.3604 7.50929C12.8376 7.77495 12.3717 8.20106 11.9288 8.77998V8.47494C11.937 8.21691 11.8849 7.96053 11.7767 7.72616C11.683 7.53234 11.5348 7.37014 11.3502 7.2595C11.1721 7.15574 10.9689 7.10307 10.7628 7.10728L10.7581 7.10551ZM34.5936 8.81936H34.6012C35.2438 8.81936 35.7666 9.02859 36.1608 9.44706C36.555 9.86553 36.7876 10.5009 36.8516 11.3537H32.3497C32.4384 10.5173 32.6798 9.88434 33.0734 9.45529C33.4669 9.02624 33.975 8.81936 34.5936 8.81936ZM44.5209 8.81936H44.5291C45.1723 8.81936 45.6945 9.02859 46.0881 9.44706C46.4816 9.86553 46.7154 10.5009 46.7718 11.3537H42.2793C42.3598 10.5173 42.6012 9.88434 43.003 9.45529C43.4048 9.02624 43.9023 8.81936 44.5226 8.81936H44.5209ZM24.0477 8.96512H24.0795C24.5012 8.96401 24.9124 9.09651 25.2543 9.34362C25.6244 9.59282 25.9145 9.95487 26.1313 10.4298C26.3481 10.9047 26.4526 11.4753 26.4526 12.1342C26.4526 12.8395 26.3404 13.4272 26.1313 13.8974C25.9222 14.3676 25.6244 14.7103 25.2625 14.9348C24.9093 15.1591 24.499 15.2766 24.0806 15.2733H24.0724C23.6497 15.2753 23.2358 15.1526 22.8823 14.9207C22.5134 14.6797 22.2315 14.3259 22.0223 13.8592C21.8132 13.3926 21.7087 12.813 21.7087 12.1377C21.7087 11.5018 21.8056 10.9387 21.9989 10.4639C22.1921 9.98896 22.4729 9.61104 22.8342 9.35361C23.1846 9.09331 23.6114 8.95667 24.0477 8.96512ZM54.3988 8.96512H54.4229C54.8465 8.96555 55.2596 9.09783 55.6048 9.34362C55.9666 9.59282 56.256 9.95487 56.473 10.4298C56.6903 10.9041 56.7949 11.4753 56.7949 12.1342C56.7949 12.8395 56.6903 13.4272 56.473 13.8974C56.2556 14.3676 55.9637 14.7091 55.6095 14.9318C55.2535 15.1563 54.8407 15.2738 54.4199 15.2704H54.4123C53.9896 15.2725 53.5756 15.1499 53.2222 14.9177C52.8604 14.6768 52.5708 14.3229 52.3622 13.8563C52.1537 13.3896 52.0486 12.8101 52.0486 12.1348C52.0486 11.4989 52.1443 10.9358 52.3452 10.4609C52.5461 9.98602 52.8198 9.6081 53.174 9.35067C53.5277 9.09083 53.9572 8.95509 54.3959 8.96453L54.3988 8.96512ZM7.96438 9.04564C7.29828 9.4432 6.53659 9.65186 5.76099 9.64924C5.5924 9.64924 5.43145 9.64102 5.26286 9.62456V15.546C5.26286 16.0926 5.39151 16.5029 5.64057 16.7768C5.76088 16.9131 5.90972 17.0213 6.07651 17.0936C6.24331 17.1659 6.42398 17.2006 6.60569 17.1952C7.00748 17.1952 7.33761 17.0583 7.58608 16.7838C7.83456 16.5093 7.96438 16.1003 7.96438 15.5454V9.04622V9.04564Z" fill="#F1F1F1"/>
</svg>
